<?xml version="1.0" encoding="utf-8"?>
<!-- Generator: Adobe Illustrator 24.0.2, SVG Export Plug-In . SVG Version: 6.00 Build 0)  -->
<svg version="1.1" id="Layer_1" xmlns="http://www.w3.org/2000/svg" xmlns:xlink="http://www.w3.org/1999/xlink" x="0px" y="0px"
	 viewBox="0 0 1024 1024" style="enable-background:new 0 0 1024 1024;" xml:space="preserve">
<style type="text/css">
	.st0{fill-rule:evenodd;clip-rule:evenodd;fill:#5DA2D5;}
</style>
<g>
	<path class="st0" d="M512,0C229.1,0,0,229.1,0,512c0,226.6,146.6,417.9,350.1,485.8c25.6,4.5,35.2-10.9,35.2-24.3
		c0-12.2-0.6-52.5-0.6-95.4c-128.6,23.7-161.9-31.4-172.2-60.2c-4.4-11.2-19.9-40.2-36.7-58.8c-4.1,0.8-7.6-0.9-9.7-5.4
		c-0.9-2-1.8-3.9-2.7-5.9c-1.2-0.8-2.3-1.6-3.5-2.2c-16-8.6-38.2-28.5-12-33c-4.5-10.4-9.1-20.7-13.5-31.1c-0.9-2.2-1.9-2.7-4.4-2.2
		c-36.9,8.1-72.8-10.6-85.9-44.8c-3.3-8.6-5.1-17.4-4.9-26.6c0-37.2,28.2-68.7,65.1-72.6c40.2-4.2,75.4,22.6,81,62.4
		c3.9,28-6.7,50.8-28.1,68.8c-6.4,5.4-6.5,5.3-3.1,13c4.7,10.8,9.5,21.7,14.2,32.5c35.6,4.4,60.9,37.8,69.8,52
		c46.1,77.4,119.7,55.7,149.1,42.2c4.5-33.3,17.9-55.7,32.6-68.5c-113.9-12.8-233-57-233-252.8c0-55.7,19.8-101.8,52.5-137.6
		c-5.1-12.8-23-65.3,5.1-135.7c0,0,42.9-13.4,140.8,52.5c41-11.5,84.5-17.3,128-17.3c43.5,0,87,5.8,128,17.3
		c97.9-66.6,140.8-52.5,140.8-52.5c28.2,70.4,10.2,122.9,5.1,135.7c32.6,35.8,52.5,81.3,52.5,137.6c0,196.5-119.7,240-233.6,252.8
		c18.6,16,34.6,46.7,34.6,94.7c0,68.5-0.6,123.5-0.6,140.8c0,13.4,9.6,29.4,35.2,24.3C877.4,929.9,1024,737.9,1024,512
		C1024,229.1,794.9,0,512,0z"/>
	<path class="st0" d="M113.4,553.6c-30.8-0.1-55.3,23.8-55.4,54c-0.1,30.2,24.4,55.1,54.5,55.3c29.8,0.2,55.1-24.9,55.3-54.7
		C167.9,578.6,143.1,553.7,113.4,553.6z M117.5,645.7c-0.3,3.4-2,5-5.8,4.8c-16.3-0.8-32.9-10.7-39-28.4c-0.8-2.4-1.3-4.9-1.9-7.3
		c-1.1-4.9-0.6-9.1,4.8-11.7c3.2,2.3,4.9,5.3,5.7,9.3c3.3,16.2,13,25.1,29.4,27.2C116.6,640.5,117.9,641.6,117.5,645.7z"/>
</g>
</svg>
